<svg width="88" height="66" viewBox="0 0 88 66" fill="none" xmlns="http://www.w3.org/2000/svg">
<path fill-rule="evenodd" clip-rule="evenodd" d="M87.197 17.3029C87.4531 17.5584 87.6563 17.8618 87.7949 18.1959C87.9336 18.53 88.0049 18.8882 88.0049 19.2499C88.0049 19.6116 87.9336 19.9698 87.7949 20.3039C87.6563 20.638 87.4531 20.9415 87.197 21.1969L70.697 37.6969C70.4416 37.953 70.1381 38.1562 69.804 38.2948C69.4699 38.4335 69.1117 38.5048 68.75 38.5048C68.3883 38.5048 68.0301 38.4335 67.696 38.2948C67.3619 38.1562 67.0585 37.953 66.803 37.6969L58.553 29.4469C58.0366 28.9305 57.7466 28.2302 57.7466 27.4999C57.7466 26.7696 58.0366 26.0693 58.553 25.5529C59.0694 25.0365 59.7698 24.7464 60.5 24.7464C61.2303 24.7464 61.9306 25.0365 62.447 25.5529L68.75 31.8614L83.303 17.3029C83.5585 17.0468 83.8619 16.8436 84.196 16.705C84.5301 16.5664 84.8883 16.495 85.25 16.495C85.6117 16.495 85.9699 16.5664 86.304 16.705C86.6381 16.8436 86.9416 17.0468 87.197 17.3029Z" fill="#699BF7"/>
<path d="M5.5 66C5.5 66 0 66 0 60.5C0 55 5.5 38.5 33 38.5C60.5 38.5 66 55 66 60.5C66 66 60.5 66 60.5 66H5.5ZM33 33C37.3761 33 41.5729 31.2616 44.6673 28.1673C47.7616 25.0729 49.5 20.8761 49.5 16.5C49.5 12.1239 47.7616 7.92709 44.6673 4.83274C41.5729 1.73839 37.3761 0 33 0C28.6239 0 24.4271 1.73839 21.3327 4.83274C18.2384 7.92709 16.5 12.1239 16.5 16.5C16.5 20.8761 18.2384 25.0729 21.3327 28.1673C24.4271 31.2616 28.6239 33 33 33Z" fill="#699BF7"/>
</svg>
