<svg width="88" height="88" viewBox="0 0 88 88" fill="none" xmlns="http://www.w3.org/2000/svg">
<path d="M43.6818 -0.104867C43.5387 -0.0790199 43.3974 -0.0439729 43.2588 5.56633e-05C42.4946 0.171323 41.8135 0.602258 41.3315 1.21943C40.8495 1.8366 40.5964 2.60181 40.6154 3.38467V6.76929H10.1538C7.46088 6.76929 4.87821 7.83906 2.97399 9.74328C1.06978 11.6475 0 14.2302 0 16.9231L0 60.9231C0 66.5281 4.54892 71.077 10.1538 71.077H40.6154V72.3462L22.2098 81.549C21.3966 81.9417 20.7726 82.6414 20.4752 83.4942C20.1779 84.347 20.2314 85.2829 20.6242 86.0962C21.0169 86.9095 21.7166 87.5334 22.5694 87.8308C23.4221 88.1282 24.3581 88.0746 25.1714 87.6819L40.6154 79.9616V81.2308C40.6154 82.1285 40.972 82.9894 41.6067 83.6241C42.2415 84.2589 43.1023 84.6154 44 84.6154C44.8977 84.6154 45.7585 84.2589 46.3933 83.6241C47.028 82.9894 47.3846 82.1285 47.3846 81.2308V79.9616L62.8286 87.6819C63.6419 88.0746 64.5779 88.1282 65.4306 87.8308C66.2834 87.5334 66.9831 86.9095 67.3758 86.0962C67.7686 85.2829 67.8221 84.347 67.5248 83.4942C67.2274 82.6414 66.6034 81.9417 65.7902 81.549L47.3846 72.3462V71.077H77.8462C83.4511 71.077 88 66.5281 88 60.9231V16.9231C88 14.2302 86.9302 11.6475 85.026 9.74328C83.1218 7.83906 80.5391 6.76929 77.8462 6.76929H47.3846V3.38467C47.4017 2.90337 47.3159 2.42397 47.1329 1.97849C46.9499 1.533 46.6739 1.13171 46.3234 0.801404C45.973 0.4711 45.556 0.219398 45.1005 0.0631124C44.6449 -0.0931728 44.1613 -0.150441 43.6818 -0.104867ZM6.76923 16.9231H81.2308V60.9231H6.76923V16.9231ZM70.6538 20.3077C69.8957 20.3893 69.1873 20.7244 68.6434 21.2588L57.5385 32.3671L49.8182 24.6401C49.4484 24.2607 48.9948 23.9734 48.4938 23.8013C47.9928 23.6292 47.4584 23.5771 46.9336 23.6492C46.4088 23.7213 45.9082 23.9156 45.4722 24.2164C45.0361 24.5173 44.6768 24.9163 44.4231 25.3813L34.3742 42.9407L30.2483 32.5736C30.048 32.0383 29.7153 31.5625 29.2814 31.1905C28.8475 30.8185 28.3264 30.5624 27.7668 30.4462C27.2072 30.3299 26.6273 30.3573 26.0811 30.5257C25.535 30.6941 25.0403 30.9981 24.6434 31.4093L14.4895 41.5631C13.8432 42.209 13.48 43.0852 13.4796 43.9989C13.4793 44.9126 13.842 45.789 14.4878 46.4353C15.1337 47.0816 16.0099 47.4449 16.9236 47.4452C17.8373 47.4455 18.7137 47.0828 19.36 46.437L25.8111 39.9859L30.6782 52.0419C30.9079 52.6465 31.306 53.1727 31.8255 53.5581C32.3449 53.9435 32.9639 54.172 33.6092 54.2165C34.2545 54.261 34.899 54.1197 35.4664 53.8093C36.0339 53.4989 36.5005 53.0323 36.8111 52.465L48.1292 32.6853L55.1083 39.6677C55.4239 39.9943 55.8021 40.2539 56.2201 40.4313C56.6382 40.6086 57.0877 40.7 57.5418 40.7C57.996 40.7 58.4455 40.6086 58.8636 40.4313C59.2816 40.2539 59.6598 39.9943 59.9754 39.6677L73.5138 26.1293C74.0485 25.6343 74.4092 24.98 74.5422 24.2637C74.6753 23.5473 74.5736 22.8071 74.2523 22.1532C73.9311 21.4992 73.4073 20.9664 72.759 20.6339C72.1107 20.3015 71.3724 20.1871 70.6538 20.3077Z" fill="#699BF7"/>
</svg>
