<svg width="8" height="12" viewBox="0 0 8 12" fill="none" xmlns="http://www.w3.org/2000/svg">
<path d="M7.18912 11.6843C7.28767 11.5849 7.36585 11.4668 7.4192 11.3368C7.47254 11.2067 7.5 11.0674 7.5 10.9266C7.5 10.7859 7.47254 10.6465 7.4192 10.5165C7.36585 10.3865 7.28767 10.2684 7.18912 10.1689L3.06453 5.99906L7.18912 1.82918C7.38788 1.62823 7.49955 1.35569 7.49955 1.07151C7.49955 0.787328 7.38788 0.514783 7.18912 0.313836C6.99036 0.112888 6.72077 0 6.43968 0C6.15858 0 5.889 0.112888 5.69023 0.313836L0.810879 5.24677C0.712332 5.34619 0.634148 5.46429 0.580803 5.5943C0.527458 5.72431 0.5 5.86368 0.5 6.00444C0.5 6.14519 0.527458 6.28456 0.580803 6.41457C0.634148 6.54458 0.712332 6.66268 0.810879 6.76211L5.69023 11.695C6.09419 12.1034 6.77453 12.1034 7.18912 11.6843Z" fill="black"/>
</svg>
