<svg width="23" height="24" viewBox="0 0 23 24" fill="none" xmlns="http://www.w3.org/2000/svg">
<path d="M9 0.416654C9.14642 0.594573 9.23612 0.812312 9.25751 1.04174C9.2789 1.27116 9.231 1.50173 9.12 1.70365C8.25279 3.29587 7.7999 5.0806 7.803 6.89365C7.803 12.9252 12.72 17.8092 18.78 17.8092C19.5705 17.8092 20.34 17.7267 21.0795 17.5692C21.3062 17.5201 21.5423 17.5388 21.7584 17.6231C21.9745 17.7074 22.1609 17.8535 22.2945 18.0432C22.4355 18.2403 22.5074 18.4786 22.499 18.7208C22.4905 18.9631 22.4023 19.1957 22.248 19.3827C21.0715 20.8278 19.5874 21.9922 17.9038 22.7909C16.2201 23.5897 14.3795 24.0026 12.516 23.9997C5.601 23.9997 0 18.4287 0 11.5647C0 6.39865 3.171 1.96765 7.686 0.0896543C7.91091 -0.00539793 8.16058 -0.024907 8.39752 0.0340578C8.63447 0.0930225 8.84588 0.227277 9 0.416654Z" fill="white"/>
</svg>
