<svg width="28" height="28" viewBox="0 0 28 28" fill="none" xmlns="http://www.w3.org/2000/svg">
<path fill-rule="evenodd" clip-rule="evenodd" d="M14 0.399994C14.4509 0.399994 14.8833 0.5791 15.2021 0.897912C15.5209 1.21672 15.7 1.64913 15.7 2.09999V3.79999C15.7 4.25086 15.5209 4.68326 15.2021 5.00208C14.8833 5.32089 14.4509 5.49999 14 5.49999C13.5492 5.49999 13.1168 5.32089 12.7979 5.00208C12.4791 4.68326 12.3 4.25086 12.3 3.79999V2.09999C12.3 1.64913 12.4791 1.21672 12.7979 0.897912C13.1168 0.5791 13.5492 0.399994 14 0.399994ZM20.8 14C20.8 15.8035 20.0836 17.5331 18.8083 18.8083C17.5331 20.0836 15.8035 20.8 14 20.8C12.1966 20.8 10.4669 20.0836 9.1917 18.8083C7.91645 17.5331 7.20002 15.8035 7.20002 14C7.20002 12.1965 7.91645 10.4669 9.1917 9.19167C10.4669 7.91642 12.1966 7.19999 14 7.19999C15.8035 7.19999 17.5331 7.91642 18.8083 9.19167C20.0836 10.4669 20.8 12.1965 20.8 14ZM20.0112 22.415L21.2131 23.6169C21.5337 23.9266 21.9632 24.0979 22.4089 24.094C22.8546 24.0902 23.281 23.9114 23.5962 23.5962C23.9114 23.281 24.0902 22.8546 24.0941 22.4089C24.0979 21.9631 23.9266 21.5337 23.6169 21.2131L22.415 20.0112C22.0944 19.7015 21.665 19.5302 21.2192 19.534C20.7735 19.5379 20.3471 19.7167 20.0319 20.0319C19.7167 20.3471 19.5379 20.7735 19.5341 21.2192C19.5302 21.6649 19.7016 22.0944 20.0112 22.415ZM23.6152 4.38309C23.9339 4.70189 24.113 5.13422 24.113 5.58499C24.113 6.03577 23.9339 6.4681 23.6152 6.78689L22.415 7.98879C22.2582 8.15116 22.0706 8.28067 21.8632 8.36977C21.6558 8.45886 21.4327 8.50576 21.207 8.50772C20.9813 8.50968 20.7574 8.46667 20.5485 8.38119C20.3396 8.29571 20.1498 8.16948 19.9902 8.00987C19.8305 7.85025 19.7043 7.66044 19.6188 7.45152C19.5333 7.24259 19.4903 7.01874 19.4923 6.79301C19.4943 6.56729 19.5412 6.34421 19.6302 6.13681C19.7193 5.9294 19.8489 5.74181 20.0112 5.58499L21.2131 4.38309C21.5319 4.06439 21.9642 3.88536 22.415 3.88536C22.8658 3.88536 23.2981 4.06439 23.6169 4.38309H23.6152ZM25.9 15.7C26.3509 15.7 26.7833 15.5209 27.1021 15.2021C27.4209 14.8833 27.6 14.4509 27.6 14C27.6 13.5491 27.4209 13.1167 27.1021 12.7979C26.7833 12.4791 26.3509 12.3 25.9 12.3H24.2C23.7492 12.3 23.3168 12.4791 22.9979 12.7979C22.6791 13.1167 22.5 13.5491 22.5 14C22.5 14.4509 22.6791 14.8833 22.9979 15.2021C23.3168 15.5209 23.7492 15.7 24.2 15.7H25.9ZM14 22.5C14.4509 22.5 14.8833 22.6791 15.2021 22.9979C15.5209 23.3167 15.7 23.7491 15.7 24.2V25.9C15.7 26.3509 15.5209 26.7833 15.2021 27.1021C14.8833 27.4209 14.4509 27.6 14 27.6C13.5492 27.6 13.1168 27.4209 12.7979 27.1021C12.4791 26.7833 12.3 26.3509 12.3 25.9V24.2C12.3 23.7491 12.4791 23.3167 12.7979 22.9979C13.1168 22.6791 13.5492 22.5 14 22.5ZM5.58502 7.98879C5.74286 8.14674 5.93026 8.27205 6.13652 8.35758C6.34279 8.4431 6.56388 8.48716 6.78717 8.48724C7.01046 8.48732 7.23159 8.44341 7.43791 8.35804C7.64424 8.27266 7.83173 8.14748 7.98967 7.98964C8.14762 7.83181 8.27293 7.64441 8.35846 7.43814C8.44398 7.23188 8.48804 7.01079 8.48812 6.7875C8.4882 6.5642 8.44429 6.34308 8.35892 6.13676C8.27354 5.93043 8.14836 5.74294 7.99052 5.58499L6.78692 4.38309C6.4663 4.07343 6.03688 3.90207 5.59114 3.90595C5.14541 3.90982 4.71903 4.08861 4.40383 4.4038C4.08864 4.719 3.90985 5.14538 3.90598 5.59111C3.9021 6.03685 4.07345 6.46627 4.38312 6.78689L5.58502 7.98879ZM7.98882 22.415L6.78692 23.6169C6.4663 23.9266 6.03688 24.0979 5.59114 24.094C5.14541 24.0902 4.71903 23.9114 4.40383 23.5962C4.08864 23.281 3.90985 22.8546 3.90598 22.4089C3.9021 21.9631 4.07345 21.5337 4.38312 21.2131L5.58502 20.0112C5.90565 19.7015 6.33507 19.5302 6.78081 19.534C7.22654 19.5379 7.65292 19.7167 7.96811 20.0319C8.28331 20.3471 8.4621 20.7735 8.46597 21.2192C8.46984 21.6649 8.29849 22.0944 7.98882 22.415ZM3.80002 15.7C4.25089 15.7 4.68329 15.5209 5.0021 15.2021C5.32092 14.8833 5.50002 14.4509 5.50002 14C5.50002 13.5491 5.32092 13.1167 5.0021 12.7979C4.68329 12.4791 4.25089 12.3 3.80002 12.3H2.10002C1.64916 12.3 1.21675 12.4791 0.897943 12.7979C0.579131 13.1167 0.400024 13.5491 0.400024 14C0.400024 14.4509 0.579131 14.8833 0.897943 15.2021C1.21675 15.5209 1.64916 15.7 2.10002 15.7H3.80002Z" fill="white"/>
</svg>
