<svg viewBox="0 0 78 34" fill="none" xmlns="http://www.w3.org/2000/svg">
<path d="M5.55859 21.7637H16.7559V26H0.285156V0.40625H5.55859V21.7637ZM18.6719 16.3145C18.6719 14.4277 19.0352 12.7461 19.7617 11.2695C20.4883 9.79297 21.5312 8.65039 22.8906 7.8418C24.2617 7.0332 25.8496 6.62891 27.6543 6.62891C30.2207 6.62891 32.3125 7.41406 33.9297 8.98438C35.5586 10.5547 36.4668 12.6875 36.6543 15.3828L36.6895 16.6836C36.6895 19.6016 35.875 21.9453 34.2461 23.7148C32.6172 25.4727 30.4316 26.3516 27.6895 26.3516C24.9473 26.3516 22.7559 25.4727 21.1152 23.7148C19.4863 21.957 18.6719 19.5664 18.6719 16.543V16.3145ZM23.752 16.6836C23.752 18.4883 24.0918 19.8711 24.7715 20.832C25.4512 21.7812 26.4238 22.2559 27.6895 22.2559C28.9199 22.2559 29.8809 21.7871 30.5723 20.8496C31.2637 19.9004 31.6094 18.3887 31.6094 16.3145C31.6094 14.5449 31.2637 13.1738 30.5723 12.2012C29.8809 11.2285 28.9082 10.7422 27.6543 10.7422C26.4121 10.7422 25.4512 11.2285 24.7715 12.2012C24.0918 13.1621 23.752 14.6562 23.752 16.6836ZM39.0801 16.3496C39.0801 13.4316 39.7715 11.082 41.1543 9.30078C42.5488 7.51953 44.4238 6.62891 46.7793 6.62891C48.8652 6.62891 50.4883 7.34375 51.6484 8.77344L51.8594 6.98047H56.4648V25.3672C56.4648 27.0312 56.084 28.4785 55.3223 29.709C54.5723 30.9395 53.5117 31.877 52.1406 32.5215C50.7695 33.166 49.1641 33.4883 47.3242 33.4883C45.9297 33.4883 44.5703 33.207 43.2461 32.6445C41.9219 32.0938 40.9199 31.3789 40.2402 30.5L42.4902 27.4062C43.7559 28.8242 45.291 29.5332 47.0957 29.5332C48.4434 29.5332 49.4922 29.1699 50.2422 28.4434C50.9922 27.7285 51.3672 26.709 51.3672 25.3848V24.3652C50.1953 25.6895 48.6543 26.3516 46.7441 26.3516C44.459 26.3516 42.6074 25.4609 41.1895 23.6797C39.7832 21.8867 39.0801 19.5137 39.0801 16.5605V16.3496ZM44.1602 16.7188C44.1602 18.4414 44.5059 19.7949 45.1973 20.7793C45.8887 21.752 46.8379 22.2383 48.0449 22.2383C49.5918 22.2383 50.6992 21.6582 51.3672 20.498V12.5C50.6875 11.3398 49.5918 10.7598 48.0801 10.7598C46.8613 10.7598 45.9004 11.2578 45.1973 12.2539C44.5059 13.25 44.1602 14.7383 44.1602 16.7188ZM59.5938 16.3145C59.5938 14.4277 59.957 12.7461 60.6836 11.2695C61.4102 9.79297 62.4531 8.65039 63.8125 7.8418C65.1836 7.0332 66.7715 6.62891 68.5762 6.62891C71.1426 6.62891 73.2344 7.41406 74.8516 8.98438C76.4805 10.5547 77.3887 12.6875 77.5762 15.3828L77.6113 16.6836C77.6113 19.6016 76.7969 21.9453 75.168 23.7148C73.5391 25.4727 71.3535 26.3516 68.6113 26.3516C65.8691 26.3516 63.6777 25.4727 62.0371 23.7148C60.4082 21.957 59.5938 19.5664 59.5938 16.543V16.3145ZM64.6738 16.6836C64.6738 18.4883 65.0137 19.8711 65.6934 20.832C66.373 21.7812 67.3457 22.2559 68.6113 22.2559C69.8418 22.2559 70.8027 21.7871 71.4941 20.8496C72.1855 19.9004 72.5312 18.3887 72.5312 16.3145C72.5312 14.5449 72.1855 13.1738 71.4941 12.2012C70.8027 11.2285 69.8301 10.7422 68.5762 10.7422C67.334 10.7422 66.373 11.2285 65.6934 12.2012C65.0137 13.1621 64.6738 14.6562 64.6738 16.6836Z" fill="white"/>
</svg>
